# xmcd CD database file
#
# Track frame offsets:
#	150
#	9172
#	36860
#	57405
#	75450
#	85012
#	100622
#	122385
#	149565
#
# Disc length: 2294 seconds
#
# Revision: 0
# Processed by: cddbd v1.4PL0 Copyright (c) Steve Scherf et al.
# Submitted via: CDex 1.50beta8
#
DISCID=6108f409
DTITLE=Kenny Drew Trio - Season's Greetings
DYEAR=1996
DGENRE=Jazz
TTITLE0=Blue Christmas
TTITLE1=Quiet Cathedral
TTITLE2=White Christmas
TTITLE3=Greensleeves
TTITLE4=Away In A Manger
TTITLE5=The Christmas Song
TTITLE6=Jingle Bells
TTITLE7=Angel Eyes
TTITLE8=Silent Night
EXTD=YEAR: 1996
EXTT0=
EXTT1=
EXTT2=
EXTT3=
EXTT4=
EXTT5=
EXTT6=
EXTT7=
EXTT8=
PLAYORDER=
